<?xml version="1.0" encoding="utf-8"?>
<!-- Generator: Adobe Illustrator 16.0.0, SVG Export Plug-In . SVG Version: 6.00 Build 0)  -->
<!DOCTYPE svg PUBLIC "-//W3C//DTD SVG 1.1//EN" "http://www.w3.org/Graphics/SVG/1.1/DTD/svg11.dtd">
<svg version="1.1" id="Layer_1" xmlns="http://www.w3.org/2000/svg" xmlns:xlink="http://www.w3.org/1999/xlink" x="0px" y="0px"
	 width="792px" height="612px" viewBox="0 0 792 612" enable-background="new 0 0 792 612" xml:space="preserve">
<g>
	<g>
		<defs>
			<rect id="SVGID_1_" width="792" height="612"/>
		</defs>
		<clipPath id="SVGID_2_">
			<use xlink:href="#SVGID_1_"  overflow="visible"/>
		</clipPath>
	</g>
	<g>
		<defs>
			<rect id="SVGID_3_" width="792" height="612"/>
		</defs>
		<clipPath id="SVGID_4_">
			<use xlink:href="#SVGID_3_"  overflow="visible"/>
		</clipPath>
		<g clip-path="url(#SVGID_4_)">
			<g>
				<defs>
					<rect id="SVGID_5_" x="4.784" y="1.824" width="792" height="612"/>
				</defs>
				<clipPath id="SVGID_6_">
					<use xlink:href="#SVGID_5_"  overflow="visible"/>
				</clipPath>
				<g clip-path="url(#SVGID_6_)">
					<path fill="none" d="M263.959,346.753c0.001-0.004,0.002-0.007,0.004-0.011c0.286-0.814,0.563-1.634,0.831-2.458
						c0-0.001,0-0.002,0.001-0.002C264.525,345.11,264.247,345.935,263.959,346.753z"/>
					<path fill="none" d="M264.855,344.096L264.855,344.096c0.045-0.139,0.085-0.277,0.13-0.416
						C264.94,343.818,264.899,343.959,264.855,344.096z"/>
					<path fill="none" d="M239.201,386.365c10.758-10.59,19.313-24.135,24.743-39.566c0.001-0.003,0.002-0.006,0.003-0.008
						C258.516,362.225,249.96,375.772,239.201,386.365l-2.821-143.284l1.065,144.958l-1.065-144.967l-0.33-16.746l0,0v-0.02
						c-14.813-13.272-33.342-21.166-53.454-21.166c-48.551,0-87.909,45.973-87.909,102.683c0,56.711,39.358,102.684,87.909,102.684
						c20.749,0,39.814-8.4,54.85-22.442v-0.024v0.024c0.592-0.553,1.177-1.113,1.756-1.685L239.201,386.365z"/>
					<path d="M593.263,122.251L593.263,122.251c0-30.914-80.082-55.973-178.867-55.973S235.528,91.337,235.528,122.25l0,0l0,0
						l-0.308,61.934v0.001c-15.914-8.982-33.766-14.019-52.625-14.019c-66.887,0-121.11,63.335-121.11,141.464
						c0,78.128,54.223,141.464,121.11,141.464c20.845,0,40.458-6.152,57.585-16.985l0.682,34.623l1.918,22.666l0,0
						c0,30.913,80.082,55.973,178.867,55.973c98.786,0,178.865-25.06,178.865-55.973l0,0L593.263,122.251L593.263,122.251
						L593.263,122.251z M263.963,346.742c-0.001,0.004-0.002,0.007-0.004,0.011c0.288-0.817,0.565-1.643,0.835-2.471
						c0,0,0,0.001-0.001,0.002C264.526,345.108,264.249,345.928,263.963,346.742z M264.855,344.096
						c0.044-0.138,0.085-0.277,0.13-0.416C264.94,343.818,264.9,343.958,264.855,344.096L264.855,344.096z M237.48,392.848
						l-0.035-4.783c-15.036,14.042-34.102,22.442-54.85,22.442c-48.551,0-87.909-45.973-87.909-102.684
						c0-56.71,39.358-102.683,87.909-102.683c20.111,0,38.641,7.894,53.454,21.166v0.02l0,0l0.33,16.746l1.065,144.967
						l-1.065-144.958l2.821,143.283c10.76-10.592,19.316-24.14,24.746-39.573c-0.001,0.002-0.002,0.005-0.003,0.008
						c-5.429,15.433-13.985,28.978-24.743,39.566v0.016c-0.579,0.57-1.165,1.133-1.756,1.685L237.48,392.848z"/>
					<polygon points="593.263,122.251 593.263,122.251 600.513,493.397 600.513,493.397 					"/>
					<polygon points="242.779,493.397 242.779,493.397 240.861,470.731 					"/>
					<line fill="none" x1="615.5" y1="125.125" x2="611.625" y2="490.125"/>
					<line fill="none" x1="593" y1="123.5" x2="593" y2="123.5"/>
					<line fill="none" x1="601.767" y1="496.19" x2="613.75" y2="493.125"/>
					<line fill="none" x1="237.445" y1="388.064" x2="237.445" y2="388.04"/>
					<line fill="none" x1="237.48" y1="392.848" x2="237.445" y2="388.064"/>
					<line fill="none" x1="242.779" y1="493.397" x2="242.779" y2="493.398"/>
					<line fill="none" x1="242.779" y1="493.397" x2="240.861" y2="470.731"/>
					<line fill="none" x1="240.861" y1="470.731" x2="238.043" y2="437.426"/>
				</g>
			</g>
			<g>
				<defs>
					<rect id="SVGID_7_" x="4.784" y="1.824" width="792" height="612"/>
				</defs>
				<clipPath id="SVGID_8_">
					<use xlink:href="#SVGID_7_"  overflow="visible"/>
				</clipPath>
				<g clip-path="url(#SVGID_8_)">
					<g>
						<defs>
							<rect id="SVGID_9_" x="4.784" y="1.824" width="792" height="612"/>
						</defs>
						<defs>
							<rect id="SVGID_10_" x="4.784" y="1.824" width="792" height="612"/>
						</defs>
						<defs>
							<rect id="SVGID_11_" x="4.784" y="1.824" width="792" height="612"/>
						</defs>
						<defs>
							<rect id="SVGID_12_" x="4.784" y="1.824" width="792" height="612"/>
						</defs>
						<defs>
							<rect id="SVGID_13_" x="4.784" y="1.824" width="792" height="612"/>
						</defs>
						<clipPath id="SVGID_14_">
							<use xlink:href="#SVGID_9_"  overflow="visible"/>
						</clipPath>
						<clipPath id="SVGID_15_" clip-path="url(#SVGID_14_)">
							<use xlink:href="#SVGID_10_"  overflow="visible"/>
						</clipPath>
						<clipPath id="SVGID_16_" clip-path="url(#SVGID_15_)">
							<use xlink:href="#SVGID_11_"  overflow="visible"/>
						</clipPath>
						<clipPath id="SVGID_17_" clip-path="url(#SVGID_16_)">
							<use xlink:href="#SVGID_12_"  overflow="visible"/>
						</clipPath>
						<clipPath id="SVGID_18_" clip-path="url(#SVGID_17_)">
							<use xlink:href="#SVGID_13_"  overflow="visible"/>
						</clipPath>
						<line clip-path="url(#SVGID_18_)" fill="none" x1="335.473" y1="337.959" x2="273.352" y2="337.959"/>
						<line clip-path="url(#SVGID_18_)" fill="none" x1="339.807" y1="356.018" x2="295.414" y2="368.396"/>
						<line clip-path="url(#SVGID_18_)" fill="none" x1="507.819" y1="339.854" x2="569.94" y2="339.854"/>
						<line clip-path="url(#SVGID_18_)" fill="none" x1="503.485" y1="357.912" x2="547.878" y2="370.291"/>
						<path clip-path="url(#SVGID_18_)" fill="#FFFFFF" d="M569.94,337.354h-47.495c1.022-5.199,1.56-10.549,1.56-16.01
							c0-2.068-0.084-4.119-0.234-6.154c11.277-2.385,22.556-4.77,33.834-7.153c3.151-0.667,1.814-5.486-1.33-4.821
							c-11.008,2.327-22.017,4.655-33.024,6.982c-0.514-3.793-1.287-7.515-2.302-11.151l-14.48-74.495l-51.631,10.036
							c-10.472-3.224-21.708-4.979-33.404-4.979c-8.596,0-16.941,0.951-24.921,2.732l-58.649-11.4l-14.012,72.087
							c-1.781,4.913-3.111,10.007-3.947,15.245c-10.961-2.317-21.922-4.634-32.883-6.952c-3.146-0.665-4.483,4.155-1.329,4.822
							c11.191,2.366,22.382,4.731,33.573,7.097c-0.261,2.671-0.403,5.373-0.403,8.104c0,4.801,0.414,9.515,1.208,14.114h-46.716
							c-3.225,0-3.225,5,0,5h47.744c1.359,5.735,3.313,11.275,5.809,16.562l-32.155,8.966c-3.101,0.865-1.782,5.688,1.329,4.821
							c11.048-3.08,22.096-6.161,33.145-9.242c16.665,30.504,51.691,51.518,92.208,51.518c39.836,0,74.365-20.309,91.355-49.979
							c11.477,3.199,22.95,6.399,34.426,9.6c3.112,0.868,4.432-3.956,1.329-4.821c-11.114-3.1-22.229-6.198-33.346-9.299
							c2.573-5.175,4.628-10.602,6.103-16.229h48.643C573.165,342.354,573.165,337.354,569.94,337.354z"/>
					</g>
				</g>
			</g>
		</g>
	</g>
</g>
</svg>
